#!OML:ASF F:\VICON\USERDATA\INSTALL\rory3\rory3.ASF
:FULLY-SPECIFIED
:DEGREES
173
root 0.739502 17.7428 0.346475 -2.17367 0.892386 1.91723
lowerback 9.65788 -0.955231 -4.79329
upperback 0.206489 -1.7469 1.07352
thorax -5.03015 -0.734723 4.0662
lowerneck -16.0804 -2.72307 -1.57429
upperneck 24.4539 -3.24431 -0.688535
head 10.5136 -1.72313 -0.425015
rclavicle 3.3048e-015 -3.97569e-016
rhumerus -37.3346 -31.634 -69.7111
rradius 20.2864
rwrist 10.8629
rhand -18.5569 21.9458
rfingers 7.12502
rthumb 7.73286 -7.89283
lclavicle 3.3048e-015 -3.97569e-016
lhumerus -21.617 -1.09512 79.8509
lradius 30.8187
lwrist 7.35696
lhand -31.3507 19.5866
lfingers 7.12502
lthumb -4.62177 49.5162
rfemur -27.8833 5.22034 18.0184
rtibia 16.381
rfoot -10.1963 -10.4207
rtoes -3.28216
lfemur 13.2701 -3.16384 -26.781
ltibia 18.2267
lfoot -18.3866 -1.30724
ltoes -6.53466
174
root 0.716417 17.7285 0.523661 -2.09717 0.842816 1.56473
lowerback 9.69037 -1.01284 -4.56247
upperback 0.119726 -1.79244 1.23622
thorax -5.13648 -0.756075 4.11592
lowerneck -15.9793 -2.76134 -1.56197
upperneck 24.3583 -3.26772 -0.824235
head 10.4564 -1.74974 -0.47569
rclavicle 1.18028e-015 -4.37326e-015
rhumerus -37.3672 -31.4844 -69.7579
rradius 20.128
rwrist 10.2849
rhand -18.8021 21.547
rfingers 7.12502
rthumb 7.49616 -8.30013
lclavicle 1.18028e-015 -4.37326e-015
lhumerus -21.5103 -0.802623 79.8214
lradius 30.4622
lwrist 7.34162
lhand -31.8275 17.7889
lfingers 7.12502
lthumb -5.08218 47.708
rfemur -28.1459 4.73329 18.9205
rtibia 17.8733
rfoot -9.12408 -10.234
rtoes -4.45498
lfemur 13.4692 -3.38908 -26.3379
ltibia 18.7901
lfoot -18.2117 -1.58062
ltoes -7.45956
175
root 0.693678 17.7205 0.709659 -2.1127 0.717672 1.42582
lowerback 9.68168 -1.07247 -4.62513
upperback 0.0906672 -1.87131 1.38151
thorax -5.14734 -0.790876 4.31544
lowerneck -16.1102 -2.66413 -1.68429
upperneck 24.5855 -3.10185 -0.799806
head 10.5674 -1.68234 -0.428834
rclavicle -2.33572e-014 1.31198e-014
rhumerus -37.514 -32.147 -69.1157
rradius 19.5504
rwrist 11.3138
rhand -19.693 20.881
rfingers 7.12502
rthumb 6.63621 -8.99505
lclavicle -2.33572e-014 1.31198e-014
lhumerus -21.58 -0.328711 79.7638
lradius 30.1966
lwrist 7.45737
lhand -32.115 15.7237
lfingers 7.12502
lthumb -5.35973 45.6359
rfemur -28.2273 4.65303 19.4856
rtibia 19.4515
rfoot -8.87505 -10.5532
rtoes -1.96007
lfemur 13.8084 -3.65513 -26.2195
ltibia 19.4331
lfoot -18.0413 -1.49055
ltoes -9.51767
176
root 0.671857 17.7158 0.913472 -2.16456 0.837743 1.57404
lowerback 9.44921 -1.16775 -4.93908
upperback 0.109983 -2.01784 1.45661
thorax -4.96763 -0.860965 4.58269
lowerneck -15.8475 -2.55695 -1.88695
upperneck 24.4518 -2.92247 -0.716412
head 10.4724 -1.60952 -0.335012
rclavicle -2.34566e-014 -1.98785e-015
rhumerus -37.8419 -32.8925 -68.2331
rradius 18.9762
rwrist 12.5333
rhand -20.9973 20.625
rfingers 7.12502
rthumb 5.37696 -9.28676
lclavicle -2.34566e-014 -1.98785e-015
lhumerus -21.86 0.0419988 79.8221
lradius 30.223
lwrist 7.5836
lhand -31.8306 14.8347
lfingers 7.12502
lthumb -5.0852 44.7537
rfemur -28.1384 4.44586 19.6842
rtibia 21.0806
rfoot -9.26179 -10.7243
rtoes -1.58141
lfemur 14.2447 -4.04388 -26.4317
ltibia 19.8792
lfoot -17.4623 -1.61563
ltoes -11.457
177
root 0.651164 17.7054 1.12608 -2.13638 1.19592 1.84226
lowerback 9.06164 -1.2583 -5.15385
upperback 0.144082 -2.1467 1.3486
thorax -4.6958 -0.930787 4.59065
lowerneck -15.7913 -2.57815 -1.85328
upperneck 24.3604 -2.9615 -0.72038
head 10.4276 -1.62465 -0.345496
rclavicle -3.57812e-015 2.38542e-015
rhumerus -38.2593 -33.6182 -67.6353
rradius 18.725
rwrist 13.0766
rhand -21.5255 20.8168
rfingers 7.12502
rthumb 4.86692 -9.10733
lclavicle -3.57812e-015 2.38542e-015
lhumerus -21.8862 0.18722 79.8344
lradius 30.136
lwrist 7.47429
lhand -31.3961 15.6081
lfingers 7.12502
lthumb -4.66563 45.5368
rfemur -28.0334 4.04877 19.6844
rtibia 22.4923
rfoot -9.21979 -10.5107
rtoes -1.92729
lfemur 14.6573 -4.39153 -26.648
ltibia 20.1735
lfoot -16.7077 -2.47996
ltoes -11.8393
178
root 0.629873 17.7205 1.33746 -2.0955 1.47163 2.09317
lowerback 8.8639 -1.31992 -5.34686
upperback 0.0379279 -2.24701 1.2177
thorax -4.68278 -0.975564 4.56891
lowerneck -15.9067 -2.59776 -1.60651
upperneck 24.6457 -3.00038 -0.927951
head 10.546 -1.64501 -0.471076
rclavicle -5.46658e-015 -6.36111e-015
rhumerus -39.0222 -33.9874 -67.0508
rradius 18.7883
rwrist 12.9405
rhand -20.5596 22.177
rfingers 7.12502
rthumb 5.79954 -7.72362
lclavicle -5.46658e-015 -6.36111e-015
lhumerus -22.1572 0.0817949 79.8291
lradius 30.1966
lwrist 7.46548
lhand -31.1781 16.8102
lfingers 7.12502
lthumb -4.45508 46.7433
rfemur -28.0373 3.87564 19.5802
rtibia 23.5629
rfoot -7.9962 -10.265
rtoes -1.55832
lfemur 15.1568 -4.88762 -26.9596
ltibia 20.6045
lfoot -16.1199 -2.77684
ltoes -11.198
